<?xml version="1.0" encoding="UTF-8" standalone="no"?><!DOCTYPE svg PUBLIC "-//W3C//DTD SVG 1.1//EN" "http://www.w3.org/Graphics/SVG/1.1/DTD/svg11.dtd"><svg width="100%" height="100%" viewBox="0 0 209 71" version="1.1" xmlns="http://www.w3.org/2000/svg" xmlns:xlink="http://www.w3.org/1999/xlink" xml:space="preserve" xmlns:serif="http://www.serif.com/" style="fill-rule:evenodd;clip-rule:evenodd;stroke-linejoin:round;stroke-miterlimit:2;"><g><path d="M150.17,19.003l-3.096,-5.399l3.096,-5.4l6.263,0l3.096,5.4l-3.096,5.399l-6.263,0Z" style="fill:#b1b1b1;fill-rule:nonzero;"/><path d="M140.811,35.129l-3.096,-5.399l3.096,-5.328l6.263,0l3.096,5.328l-3.096,5.399l-6.263,-0Z" style="fill:#b1b1b1;fill-rule:nonzero;"/><path d="M187.533,19.003l-3.095,-5.399l3.095,-5.4l6.263,0l3.095,5.4l-3.095,5.399l-6.263,0Z" style="fill:#b1b1b1;fill-rule:nonzero;"/><path d="M196.891,35.129l-3.095,-5.399l3.095,-5.328l6.192,0l3.167,5.328l-3.167,5.399l-6.192,-0Z" style="fill:#b1b1b1;fill-rule:nonzero;"/><path d="M159.529,67.524l-3.096,-5.399l3.096,-5.399l6.191,-0l3.168,5.399l-3.168,5.399l-6.191,-0Z" style="fill:#b1b1b1;fill-rule:nonzero;"/><path d="M178.174,67.524l-3.095,-5.399l3.095,-5.399l6.264,-0l3.095,5.399l-3.095,5.399l-6.264,-0Z" style="fill:#b1b1b1;fill-rule:nonzero;"/><path d="M168.888,29.73l-3.168,-5.328l3.168,-5.399l6.191,0l3.095,5.399l-3.095,5.328l-6.191,-0Z" style="fill:#b1b1b1;fill-rule:nonzero;"/><path d="M159.529,45.927l-3.096,-5.399l3.096,-5.399l6.191,-0l3.168,5.399l-3.168,5.399l-6.191,-0Z" style="fill:#b1b1b1;fill-rule:nonzero;"/><path d="M178.174,45.927l-3.095,-5.399l3.095,-5.399l6.264,-0l3.095,5.399l-3.095,5.399l-6.264,-0Z" style="fill:#b1b1b1;fill-rule:nonzero;"/><path d="M150.17,29.73l-3.096,-5.328l3.096,-5.399l6.263,0l3.096,5.399l-3.096,5.328l-6.263,-0Z" style="fill:#76b72a;fill-rule:nonzero;"/><path d="M168.888,19.003l-3.168,-5.399l3.168,-5.4l6.191,0l3.095,5.4l-1.08,1.944l-2.015,3.455l-6.191,0Z" style="fill:#76b72a;fill-rule:nonzero;"/><path d="M150.17,51.327l-3.096,-5.4l3.096,-5.399l6.263,-0l3.096,5.399l-3.096,5.4l-6.263,-0Z" style="fill:#76b72a;fill-rule:nonzero;"/><path d="M187.533,29.73l-3.095,-5.328l3.095,-5.399l6.263,0l3.095,5.399l-3.095,5.328l-6.263,-0Z" style="fill:#76b72a;fill-rule:nonzero;"/><path d="M168.888,62.125l-3.168,-5.399l3.168,-5.399l6.191,-0l3.095,5.399l-3.095,5.399l-6.191,-0Z" style="fill:#76b72a;fill-rule:nonzero;"/><path d="M187.533,51.327l-3.095,-5.4l3.095,-5.399l6.263,-0l3.095,5.399l-3.095,5.4l-6.263,-0Z" style="fill:#76b72a;fill-rule:nonzero;"/><path d="M159.529,13.604l-3.096,-5.4l3.096,-5.399l6.191,0l3.168,5.399l-3.168,5.4l-6.191,0Z" style="fill:#bbce00;fill-rule:nonzero;"/><path d="M178.174,13.604l-3.095,-5.4l3.095,-5.399l6.264,0l3.095,5.399l-3.095,5.4l-6.264,0Z" style="fill:#bbce00;fill-rule:nonzero;"/><path d="M140.811,45.927l-3.096,-5.399l3.096,-5.399l6.263,-0l3.096,5.399l-3.096,5.399l-6.263,-0Z" style="fill:#bbce00;fill-rule:nonzero;"/><path d="M150.17,62.125l-3.096,-5.399l3.096,-5.399l6.263,-0l3.096,5.399l-3.096,5.399l-6.263,-0Z" style="fill:#bbce00;fill-rule:nonzero;"/><path d="M196.891,45.927l-3.095,-5.399l3.095,-5.399l6.192,-0l3.167,5.399l-3.167,5.399l-6.192,-0Z" style="fill:#bbce00;fill-rule:nonzero;"/><path d="M187.533,62.125l-3.095,-5.399l3.095,-5.399l6.263,-0l3.095,5.399l-3.095,5.399l-6.263,-0Z" style="fill:#bbce00;fill-rule:nonzero;"/><path d="M165.72,35.129l-6.191,-0l-3.096,-5.399l3.096,-5.328l6.191,0l3.168,5.328l-3.168,5.399Z" style="fill:#bbce00;fill-rule:nonzero;"/><path d="M184.438,35.129l-6.264,-0l-3.095,-5.399l3.095,-5.328l6.264,0l3.095,5.328l-3.095,5.399Z" style="fill:#bbce00;fill-rule:nonzero;"/><path d="M168.888,51.327l-3.168,-5.4l3.168,-5.399l6.191,-0l3.095,5.399l-3.095,5.4l-6.191,-0Z" style="fill:#bbce00;fill-rule:nonzero;"/><path d="M165.72,24.402l-6.191,0l-3.096,-5.399l3.096,-5.399l6.191,0l3.168,5.399l-3.168,5.399Z" style="fill:#f2e400;fill-rule:nonzero;"/><path d="M150.17,40.528l-3.096,-5.399l3.096,-5.399l6.263,-0l3.096,5.399l-3.096,5.399l-6.263,-0Z" style="fill:#f2e400;fill-rule:nonzero;"/><path d="M184.438,24.402l-6.264,0l-3.095,-5.399l2.015,-3.455l1.08,-1.944l6.264,0l3.095,5.399l-3.095,5.399Z" style="fill:#f2e400;fill-rule:nonzero;"/><path d="M165.72,56.726l-6.191,-0l-3.096,-5.399l3.096,-5.4l6.191,-0l3.168,5.4l-3.168,5.399Z" style="fill:#f2e400;fill-rule:nonzero;"/><path d="M187.533,40.528l-3.095,-5.399l3.095,-5.399l6.263,-0l3.095,5.399l-3.095,5.399l-6.263,-0Z" style="fill:#f2e400;fill-rule:nonzero;"/><path d="M184.438,56.726l-6.264,-0l-3.095,-5.399l3.095,-5.4l6.264,-0l3.095,5.4l-3.095,5.399Z" style="fill:#f2e400;fill-rule:nonzero;"/><path d="M15.981,27.425l-0,-11.877l-11.302,-0l-0,11.877l-2.52,0l-0,-24.188l2.52,0l-0,10.078l11.302,0l-0,-10.078l2.52,0l-0,24.188l-2.52,0Z" style="fill:#8c9091;fill-rule:nonzero;"/><path d="M40.89,27.425l-0,-20.444l-6.264,13.458c-0.365,0.815 -0.561,1.696 -0.575,2.588l-0,2.16l-2.52,0l-0,-2.152c-0.006,-0.894 -0.202,-1.777 -0.576,-2.588l-6.335,-13.459l0,20.437l-2.381,0l0,-24.188l3.096,0l7.487,15.766l7.415,-15.766l3.095,0l0,24.188l-2.442,0Z" style="fill:#8c9091;fill-rule:nonzero;"/><path d="M52.696,27.425l0,-24.188l2.52,0l0,21.957l9.502,0l-0,2.231l-12.022,0Z" style="fill:#8c9091;fill-rule:nonzero;"/><path d="M78.468,27.425l-7.631,0c-1.079,0 -2.015,-0.359 -2.663,-0.931l-0.932,-0.864c-0.792,-0.719 -1.08,-1.44 -1.08,-2.447l0,-1.95c0,-1.079 0.288,-1.728 1.08,-2.447l1.008,-0.932c0.648,-0.575 1.584,-0.863 2.735,-0.863l6.264,-0l-0,-1.659c-0,-0.719 -0.432,-1.151 -0.865,-1.583l-0.575,-0.504c-0.792,-0.648 -1.152,-0.792 -2.16,-0.792l-5.69,0l0,-2.09l6.626,-0c1.224,-0 1.943,0.36 2.52,0.864l1.368,1.224c1.079,0.932 1.223,1.512 1.223,2.735l0,10.944l-1.228,1.295Zm-1.223,-8.422l-5.688,0c-0.791,0 -1.224,0.072 -1.657,0.503l-0.648,0.505c-0.359,0.36 -0.648,0.648 -0.648,1.223l0,1.872c-0.006,0.455 0.209,0.885 0.577,1.152l0.792,0.648c0.359,0.288 0.791,0.432 1.583,0.432l5.688,0l-0,-6.335l0.001,0Z" style="fill:#8c9091;fill-rule:nonzero;"/><path d="M94.162,27.425l0,-10.87c0,-1.151 -0.431,-1.727 -1.223,-2.519l-0.725,-0.648c-0.576,-0.504 -1.224,-0.932 -2.448,-0.932l-4.31,0l-0,14.969l-2.52,0l-0,-15.692l1.292,-1.37l6.766,-0c1.153,-0 1.872,0.288 2.588,0.864l2.16,1.944c0.647,0.576 0.932,1.079 0.932,2.088l-0,12.166l-2.512,0Z" style="fill:#8c9091;fill-rule:nonzero;"/><path d="M112.303,27.425l-6.983,0c-1.008,0 -1.943,-0.287 -3.024,-1.151l-1.656,-1.368c-0.648,-0.576 -1.08,-1.368 -1.08,-2.951l0,-6.12c0,-1.584 0.36,-2.376 1.08,-2.951l1.656,-1.368c1.081,-0.932 2.016,-1.152 3.024,-1.152l5.831,-0l0,-7.054l2.52,-0l0,22.82l-1.368,1.295Zm-1.223,-14.973l-4.68,0c-1.152,0 -1.799,0.288 -2.447,0.792l-0.932,0.648c-0.432,0.288 -1.08,1.007 -1.08,2.375l0,5.184c0,1.367 0.648,2.087 1.08,2.376l0.932,0.647c0.575,0.504 1.224,0.792 2.447,0.792l4.68,-0l-0,-12.814Z" style="fill:#8c9091;fill-rule:nonzero;"/><path d="M14.757,60.973l0,-2.375c0,-0.648 -0.071,-1.368 -0.575,-2.16l-2.956,-5.471l-6.695,-0l-0,10.006l-2.448,-0l0,-22.821l1.368,-1.368l7.415,0c2.447,0 2.951,0.725 4.679,2.232c1.08,0.932 1.44,1.728 1.44,2.808l0,4.031c0,1.152 -0.288,1.944 -1.44,2.808l-1.799,1.439l3.095,5.615c0.503,0.865 0.576,1.801 0.576,2.664l-0,2.52l-2.664,0l0.004,0.072Zm-0.288,-18.573c0,-0.932 -0.287,-1.584 -0.863,-2.016l-0.864,-0.792c-0.576,-0.504 -1.08,-0.648 -2.448,-0.648l-5.615,-0l-0,9.863l5.615,-0c1.368,-0 1.872,-0.144 2.448,-0.648l0.864,-0.725c0.576,-0.504 0.863,-1.152 0.863,-2.088l0,-2.946Z" style="fill:#8c9091;fill-rule:nonzero;"/><path d="M33.115,53.199l-10.146,-0l0,1.87c0,1.369 0.577,2.089 0.932,2.376l0.864,0.648c0.576,0.432 1.152,0.792 2.304,0.792l6.407,0l0,2.16l-7.557,0c-0.932,0 -1.728,-0.288 -2.808,-1.152l-1.657,-1.368c-0.648,-0.575 -0.931,-1.367 -0.931,-2.951l-0,-6.335c-0,-1.584 0.288,-2.381 0.931,-2.952l1.657,-1.367c1.08,-0.932 1.872,-1.153 2.808,-1.153l3.024,0c0.931,0 1.728,0.288 2.807,1.153l1.657,1.367c0.648,0.576 1.008,1.368 1.008,2.952l0,2.735l-1.3,1.225Zm-1.152,-3.816c-0,-1.368 -0.576,-2.088 -1.008,-2.376l-0.864,-0.647c-0.576,-0.505 -1.151,-0.792 -2.304,-0.792l-0.792,-0c-1.151,-0 -1.728,0.359 -2.303,0.792l-0.864,0.647c-0.431,0.288 -0.931,1.008 -0.931,2.376l-0,1.799l8.998,-0l0,-1.799l0.068,-0Z" style="fill:#8c9091;fill-rule:nonzero;"/><path d="M50.249,65.94l-1.442,1.225c-0.576,0.503 -1.297,0.863 -2.52,0.863l-7.344,0l0,-2.16l6.344,0c1.007,0 1.367,-0.143 2.159,-0.792l0.648,-0.504c0.503,-0.359 0.864,-0.863 0.864,-1.584l-0,-2.087l-5.76,0c-1.007,0 -1.943,-0.288 -3.023,-1.152l-1.656,-1.368c-0.648,-0.575 -1.08,-1.367 -1.08,-2.951l0,-6.119c0,-1.584 0.36,-2.381 1.08,-2.951l1.656,-1.369c1.08,-0.932 2.016,-1.151 3.023,-1.151l8.283,-0l-0,19.359c-0.009,1.229 -0.152,1.805 -1.232,2.741Zm-1.225,-19.941l-4.678,0c-1.153,0 -1.801,0.288 -2.449,0.792l-0.932,0.648c-0.431,0.288 -1.079,1.008 -1.079,2.375l-0,5.184c-0,1.368 0.648,2.087 1.079,2.381l0.932,0.647c0.577,0.504 1.225,0.792 2.449,0.792l4.678,0l-0,-12.819Z" style="fill:#8c9091;fill-rule:nonzero;"/><path d="M54.568,41.176l-0,-3.239l2.664,-0l-0,3.239l-2.664,-0Zm0.071,19.797l0,-17.133l2.52,-0l0,17.133l-2.52,-0Z" style="fill:#8c9091;fill-rule:nonzero;"/><path d="M73.357,59.317l-1.367,1.08c-0.505,0.36 -1.297,0.648 -2.232,0.648l-9.214,0l-0,-2.16l8.639,0c0.725,0 1.151,-0.143 1.511,-0.431l0.576,-0.433c0.358,-0.307 0.567,-0.753 0.577,-1.224l-0,-1.296c-0,-1.08 -0.577,-1.656 -2.016,-1.728l-6.048,-0.575c-2.588,-0.289 -3.527,-1.728 -3.527,-3.456l-0,-1.943c-0,-1.224 0.36,-1.872 0.932,-2.231l1.367,-1.08c0.504,-0.36 1.296,-0.648 2.232,-0.648l8.423,-0l0,2.159l-7.919,0c-0.724,0 -1.152,0.144 -1.512,0.432l-0.576,0.432c-0.357,0.307 -0.566,0.752 -0.575,1.223l-0,1.08c-0,1.081 0.575,1.584 1.943,1.657l5.759,0.575c2.88,0.288 3.96,1.584 3.96,3.456l0,2.231c-0.069,1.225 -0.43,1.8 -0.933,2.232Z" style="fill:#8c9091;fill-rule:nonzero;"/><path d="M82.5,60.973c-1.224,-0 -2.016,-0.288 -2.588,-0.791l-1.369,-1.225c-1.007,-0.932 -1.151,-1.512 -1.151,-2.735l-0,-16.054l2.52,-0l-0,3.743l5.326,0l0,2.16l-5.326,-0l-0,10.007c-0,0.575 0.215,1.152 1.007,1.799l0.432,0.36c0.792,0.648 1.223,0.725 2.232,0.725l1.656,0l0,2.161l-2.735,-0l-0.004,-0.15Z" style="fill:#8c9091;fill-rule:nonzero;"/><path d="M90.632,45.999l-0,14.974l-2.52,-0l0,-15.766l1.295,-1.367l7.343,-0l0,2.159l-6.118,0Z" style="fill:#8c9091;fill-rule:nonzero;"/><path d="M112.303,65.94l-1.44,1.225c-0.575,0.503 -1.295,0.863 -2.518,0.863l-7.488,0l0,-2.16l6.552,0c1.007,0 1.367,-0.143 2.159,-0.792l0.647,-0.504c0.504,-0.359 0.865,-0.863 0.865,-1.584l-0,-2.087l-5.54,0c-1.152,0 -1.872,-0.288 -2.588,-0.864l-2.167,-1.948c-0.648,-0.575 -0.932,-1.079 -0.932,-2.088l0,-12.161l2.52,-0l0,10.942c0,1.152 0.432,1.727 1.224,2.519l0.724,0.649c0.577,0.504 1.225,0.931 2.449,0.931l4.319,0l0,-15.041l2.52,-0l-0,19.359c-0.082,1.229 -0.226,1.805 -1.306,2.741Z" style="fill:#8c9091;fill-rule:nonzero;"/></g></svg>