<?xml version="1.0" encoding="UTF-8" standalone="no"?><!DOCTYPE svg PUBLIC "-//W3C//DTD SVG 1.1//EN" "http://www.w3.org/Graphics/SVG/1.1/DTD/svg11.dtd"><svg width="100%" height="100%" viewBox="0 0 209 59" version="1.1" xmlns="http://www.w3.org/2000/svg" xmlns:xlink="http://www.w3.org/1999/xlink" xml:space="preserve" xmlns:serif="http://www.serif.com/" style="fill-rule:evenodd;clip-rule:evenodd;stroke-linejoin:round;stroke-miterlimit:2;"><g><path d="M23.464,54.333c-0.097,-0.013 -0.262,-0.04 -0.495,-0.08c-0.1,-0.018 -0.286,-0.053 -0.557,-0.106c-2.414,-0.499 -4.743,-1.348 -6.912,-2.52l0.074,-0.443c0.547,-3.449 1.114,-7.01 2.535,-10.23c0.335,-0.349 0.576,-0.777 0.699,-1.244l5.432,0.175c0.473,0.006 0.822,0.013 1.061,0.018c0.439,-0.026 0.863,-0.169 1.228,-0.414c0.396,0.25 0.856,0.381 1.324,0.378c0.648,0.004 1.271,-0.258 1.721,-0.725c0.987,0.485 1.932,0.899 3.128,0.899l0.25,-0c1.326,-0.11 2.638,-0.343 3.92,-0.696c1.262,-0.307 2.639,-0.676 4.04,-1.091c-1.055,1.182 -2.203,2.279 -3.431,3.279c-1.731,1.253 -3.579,2.334 -5.519,3.228c-1.043,0.517 -1.996,1.199 -2.82,2.021c-0.547,0.604 -1.01,1.278 -1.377,2.006c-0.095,0.158 -0.176,0.319 -0.27,0.481c-0.177,0.298 -0.379,0.584 -0.588,0.886c-0.429,0.558 -0.779,1.171 -1.04,1.824c-0.284,0.796 -0.523,1.621 -0.756,2.413l-0.05,0.157c-0.541,-0.052 -1.071,-0.129 -1.597,-0.216Zm10.388,-9.334c1.927,2.632 4.758,4.187 7.668,5.542c-4.136,2.705 -8.972,4.145 -13.914,4.145c-0.497,-0 -0.991,-0.017 -1.475,-0.046c0.222,-0.756 0.456,-1.542 0.719,-2.292c0.232,-0.561 0.539,-1.088 0.912,-1.567c0.23,-0.31 0.443,-0.632 0.637,-0.966c0.095,-0.161 0.189,-0.327 0.284,-0.492c0.32,-0.644 0.725,-1.242 1.203,-1.779c0.744,-0.739 1.601,-1.353 2.54,-1.82l1.426,-0.725Zm-17.386,-28.816c-0.118,-3.166 -0.474,-6.32 -1.065,-9.433c8.977,-4.886 20.061,-3.929 28.067,2.425c-0.163,0.165 -0.317,0.34 -0.461,0.522c-0.381,0.536 -0.681,1.126 -0.891,1.749c-0.082,0.203 -0.161,0.415 -0.247,0.618l-0.336,0.771c-0.563,1.386 -1.249,2.719 -2.051,3.983c-0.653,0.906 -1.401,1.74 -2.232,2.487c-0.538,0.518 -1.089,1.052 -1.594,1.633c-0.131,0.174 -0.267,0.356 -0.411,0.535l-0.99,-0.904c-0.066,-0.128 -0.144,-0.269 -0.226,-0.415c-0.199,-0.264 -0.315,-0.581 -0.333,-0.911c0.033,-0.328 0.497,-0.693 0.851,-0.987c0.103,-0.087 0.206,-0.17 0.292,-0.248c0.114,-0.101 0.18,-0.246 0.18,-0.398c0,-0.291 -0.239,-0.53 -0.529,-0.53c-0.129,0 -0.253,0.047 -0.35,0.132c-0.078,0.07 -0.168,0.144 -0.262,0.219c-0.502,0.39 -1.11,0.912 -1.229,1.633c-0.042,0.577 0.12,1.151 0.456,1.621l0.058,0.112c-0.107,0.149 -0.214,0.311 -0.325,0.481c-0.513,0.8 -0.892,1.314 -1.401,1.243c-1.302,-0.198 -1.578,0.539 -1.841,1.244c-0.263,0.705 -0.456,1.701 0.884,2.254l0.369,0.158c0.488,0.222 0.994,0.402 1.512,0.539c0.288,0.071 0.581,0.119 0.876,0.146l1.199,0.049c0.823,0.041 1.644,0.083 2.466,0.141c1.124,0.053 2.238,0.244 3.316,0.567c0.662,0.207 1.064,0.862 1.376,1.45c0.51,0.962 0.999,2.015 1.587,3.419c0.421,0.958 0.91,1.883 1.463,2.771c0.069,0.111 0.135,0.228 0.205,0.344c-0.275,0.155 -0.559,0.293 -0.851,0.414c-2.421,0.966 -4.915,1.738 -7.458,2.309c-1.201,0.329 -2.429,0.547 -3.67,0.65c-1.04,0.063 -1.87,-0.318 -2.815,-0.766c0.054,-0.203 0.081,-0.412 0.082,-0.622c0.037,-1.047 -0.689,-1.979 -1.713,-2.201c0.029,-0.435 0.066,-0.891 0.111,-1.306c0.104,-0.811 0.155,-1.628 0.152,-2.445c-0.012,-0.443 -0.041,-0.887 -0.07,-1.33c-0.029,-0.511 -0.066,-1.02 -0.066,-1.534l0,-0.253c-0.008,-1.521 -0.024,-3.78 -1.713,-4.559c-1.158,-0.483 -2.42,-0.663 -3.666,-0.523c-0.322,0.026 -0.641,0.072 -0.957,0.137c-0.662,0.116 -1.418,0.253 -1.833,0.033c-0.272,-0.141 -0.37,-0.58 -0.431,-1.04c-0.059,-0.507 -0.083,-1.018 -0.07,-1.529l-0,-0.353c-0,-0.717 -0.049,-1.433 -0.095,-2.126l-0.049,-0.829c-0.017,-0.27 -0.041,-0.547 -0.062,-0.829c-0.112,-0.825 -0.112,-1.662 -0,-2.487c0.23,-1.173 0.423,-2.334 0.584,-3.316c0.007,-0.035 0.011,-0.07 0.011,-0.105c-0,-0.29 -0.239,-0.528 -0.528,-0.528c-0.264,0 -0.489,0.198 -0.523,0.459c-0.169,0.975 -0.353,2.127 -0.579,3.283c-0.138,0.917 -0.147,1.849 -0.025,2.769c0.02,0.294 0.041,0.567 0.058,0.828c0.017,0.262 0.053,0.544 0.053,0.829c0.045,0.689 0.094,1.389 0.094,2.073l0,0.348c-0.011,0.554 0.015,1.108 0.079,1.658c0.065,0.457 0.262,1.447 1.01,1.824c0.748,0.377 1.668,0.211 2.491,0.066c0.271,-0.055 0.545,-0.097 0.821,-0.124c1.082,-0.12 2.176,0.037 3.18,0.455c1.11,0.49 1.11,2.343 1.11,3.586l-0,0.268c-0,0.531 0.036,1.057 0.069,1.588c0.029,0.431 0.066,0.878 0.066,1.293c-0,0.77 -0.048,1.54 -0.144,2.304c-0.045,0.448 -0.094,0.913 -0.119,1.377c-1.097,0.164 -1.907,1.133 -1.874,2.242c-0.001,0.383 0.094,0.76 0.276,1.098c-0.238,0.132 -0.511,0.187 -0.781,0.158l-6.127,-0.219c-0.039,-0.443 -0.181,-0.87 -0.416,-1.247c-1.512,-3.308 -1.923,-7.021 -2.335,-10.62l-0.073,-0.605c0.31,-3.315 0.448,-6.643 0.413,-9.973Zm5.86,0.515l-0.007,-0c-0.026,0.428 -0.004,0.857 0.065,1.28c0.029,0.257 0.21,1.229 0.439,1.344c0.23,0.114 0.819,-0 1.052,-0l2.68,-0l-0,-2.04l-0.604,-0l-0,-2.579l-2.697,0c-0.304,0 -0.423,-0.062 -0.579,0.136c-0.312,0.392 -0.324,1.386 -0.35,1.859l0.001,-0Zm-8.496,19.912c-0.066,1.501 -0.12,3.046 -0.156,4.625c-1.476,-0.161 -2.877,-0.85 -2.877,-2.304c0,-1.454 1.494,-2.193 3.033,-2.321Zm1.484,0.074c0.533,0.084 1.046,0.267 1.512,0.539c0.625,0.34 1.016,0.996 1.019,1.708c-0,1.338 -1.27,2.068 -2.675,2.276c0.03,-1.543 0.077,-3.055 0.145,-4.523l-0.001,0Zm32.023,-1.388l5.33,-1.343c-0.515,2.707 -1.466,5.312 -2.815,7.713c-0.655,-0.957 -1.375,-1.867 -2.157,-2.723c-0.338,-0.321 -0.729,-0.582 -1.155,-0.77c-0.238,-0.118 -0.465,-0.257 -0.678,-0.415c-0.316,-0.307 -0.545,-0.694 -0.662,-1.119c0.741,-0.356 1.432,-0.807 2.055,-1.343c0.028,0.004 0.056,0.004 0.084,-0l-0.002,-0Zm1.258,-3.287c-0.545,0.868 -1.184,1.673 -1.907,2.4c-0.283,0.252 -0.586,0.482 -0.904,0.688c-0.074,-0.12 -0.144,-0.241 -0.214,-0.361c-0.535,-0.853 -1.009,-1.744 -1.418,-2.664c-0.616,-1.435 -1.117,-2.517 -1.644,-3.507c-0.195,-0.395 -0.439,-0.765 -0.725,-1.101l-0.859,-10.943c0.578,-1.06 1.096,-2.15 1.553,-3.267l0.329,-0.766c0.095,-0.211 0.182,-0.435 0.268,-0.655c0.175,-0.527 0.424,-1.027 0.739,-1.484c0.141,-0.174 0.292,-0.339 0.452,-0.495c4.711,4.049 7.782,9.685 8.629,15.838l-0.329,0.489c-1.154,1.729 -2.345,3.515 -3.557,5.253c-0.149,0.189 -0.28,0.378 -0.412,0.575l-0.001,0Zm-11.627,-6.018c-0.833,-0.059 -1.672,-0.1 -2.506,-0.149l-0.871,-0.042l0.209,-0.332c0.788,-1.342 1.678,-2.621 2.663,-3.825c0.472,-0.547 1.011,-1.065 1.529,-1.563c0.712,-0.66 1.375,-1.371 1.985,-2.126l0.697,8.704l-0.112,-0.05c-1.165,-0.354 -2.37,-0.562 -3.587,-0.617l-0.007,-0Zm12.489,6.616l0.395,-0.567c1.084,-1.554 2.148,-3.145 3.192,-4.704c0.041,0.588 0.074,1.215 0.074,1.832c0.002,1.217 -0.082,2.432 -0.251,3.637l-4.312,1.086c0.32,-0.419 0.616,-0.867 0.909,-1.281l-0.007,-0.003Zm-14.853,-10.272c-0.604,0.841 -1.158,1.715 -1.701,2.577l-0.46,0.735c-0.404,-0.123 -0.799,-0.272 -1.184,-0.444l-0.362,-0.166c-0.46,-0.189 -0.542,-0.252 -0.299,-0.9c0.243,-0.647 0.242,-0.646 0.702,-0.579c1.204,0.174 1.923,-0.912 2.437,-1.708l0.127,-0.195l0.74,0.68Zm-19.239,13.272c0.077,-1.637 0.205,-3.292 0.336,-4.932c0.254,1.841 0.679,3.654 1.27,5.417c-0.509,-0.24 -1.05,-0.403 -1.606,-0.485Zm-4.776,5.413c1.276,3.118 2.334,6.32 3.169,9.583c-4.876,-3.152 -8.535,-7.872 -10.372,-13.38l0.024,-0.033l0.317,-0.216c0.532,-0.316 1.014,-0.71 1.43,-1.168c0.501,0.378 1.002,0.756 1.483,1.168c0.358,0.291 0.711,0.581 1.073,0.862c0.376,0.28 0.77,0.535 1.18,0.763c0.312,0.183 0.599,0.357 0.875,0.551c0.048,0.688 0.339,1.337 0.821,1.83l0,0.04Zm-7.487,-16.928c-0.14,-0.132 -0.283,-0.261 -0.411,-0.365c0.876,-4.013 2.709,-7.756 5.342,-10.909l0.095,1.808c0.156,3.033 0.317,6.175 0.621,9.251l0.028,0.236c0.083,0.742 0.062,0.999 -0.238,1.157c-0.346,0.134 -0.714,0.2 -1.085,0.194c-0.152,0.008 -0.3,0.034 -0.439,0.034c-0.223,0.02 -0.465,0.07 -0.72,0.12c-0.546,0.094 -1.166,0.224 -1.458,-0c-0.592,-0.469 -1.171,-1.008 -1.735,-1.526Zm-0.661,0.829c0.567,0.523 1.142,1.057 1.759,1.526l0.102,0.07l0.197,6.458c0,0.202 0.025,0.423 0.049,0.642c0.052,0.371 0.052,0.748 0,1.119c-0.106,0.49 -0.85,0.991 -1.393,1.356l-0.094,0.062c-0.648,-2.272 -0.977,-4.622 -0.978,-6.984c0.002,-1.424 0.122,-2.845 0.358,-4.249Zm46.756,17.645l0.069,0.117c-1.757,2.81 -4.041,5.253 -6.726,7.195c-2.931,-1.38 -5.849,-2.868 -7.739,-5.388c1.161,-0.615 2.271,-1.32 3.321,-2.111c1.299,-1.052 2.51,-2.21 3.62,-3.46c0.444,-0.473 0.887,-0.946 1.34,-1.401c0.386,-0.141 0.772,-0.284 1.15,-0.443c0.181,0.598 0.527,1.132 0.999,1.542c0.258,0.19 0.533,0.355 0.822,0.494c0.323,0.134 0.621,0.322 0.883,0.554c0.82,0.914 1.575,1.883 2.261,2.901Zm-22.618,-4.978c-0.007,-0.336 0.127,-0.661 0.37,-0.893c0.242,-0.232 0.57,-0.35 0.904,-0.326c0.321,-0.006 0.635,0.103 0.883,0.308c0.258,0.23 0.397,0.566 0.378,0.911c-0,0.694 -0.572,1.265 -1.266,1.265c-0.694,0 -1.266,-0.571 -1.266,-1.265c0,-0 -0.003,-0 -0.003,-0Zm-11.416,4.692c0.538,-0.063 1.064,-0.198 1.566,-0.402c-0.635,1.785 -1.122,3.618 -1.455,5.482c-0.029,-0.675 -0.062,-1.35 -0.082,-2.019c-0.029,-1.03 -0.029,-2.045 -0.029,-3.061Zm-1.574,-9.948c0.095,-0.352 0.189,-0.705 0.292,-1.039l0.39,-1.36c-0.151,1.861 -0.3,3.743 -0.39,5.616c-0.524,0.03 -1.041,0.126 -1.541,0.284c0.225,-0.399 0.418,-0.815 0.576,-1.244c0.262,-0.736 0.472,-1.511 0.673,-2.257Zm0.12,13.053c0.019,0.638 0.049,1.281 0.077,1.915c-0.538,-1.82 -1.134,-3.644 -1.833,-5.422c0.55,0.223 1.131,0.363 1.722,0.414c-0.003,1.02 0,2.052 0.034,3.093Zm-4.525,-30.842c-0.049,-0.951 -0.101,-1.906 -0.156,-2.864c1.475,-1.585 3.144,-2.976 4.968,-4.141c0.526,2.86 0.842,5.756 0.945,8.662c0.082,3.001 -0.099,6.05 -0.329,9.057l-1.644,5.741c-0.103,0.352 -0.197,0.712 -0.295,1.069c-0.198,0.73 -0.403,1.484 -0.654,2.197c-0.206,0.534 -0.46,1.049 -0.76,1.537c-0.132,0.262 -0.276,0.523 -0.411,0.788c-0.441,0.352 -0.773,0.824 -0.953,1.36l-0.489,-0.29c-0.369,-0.205 -0.725,-0.433 -1.064,-0.685c-0.354,-0.26 -0.707,-0.542 -1.057,-0.829c-0.546,-0.443 -1.11,-0.915 -1.693,-1.329c0.056,-0.434 0.056,-0.873 -0,-1.307c-0.025,-0.188 -0.04,-0.377 -0.045,-0.567l-0.172,-6.155c0.37,-0.019 0.739,-0.07 1.101,-0.153c0.2,-0.057 0.405,-0.093 0.612,-0.108l0.41,-0.029c0.521,0.005 1.037,-0.102 1.513,-0.311c1.015,-0.522 0.9,-1.547 0.822,-2.226l-0.024,-0.22c-0.309,-3.042 -0.469,-6.172 -0.625,-9.197Z" style="fill:#453c90;fill-rule:nonzero;"/><path d="M68.11,52.391c0.011,-0 0.022,-0.001 0.033,-0.001c0.631,0 1.15,0.519 1.15,1.15c-0,0.63 -0.519,1.149 -1.15,1.149c-0.011,0 -0.022,-0 -0.033,-0c-6.04,-0 -11.804,-2.593 -16.235,-7.302c-0.337,-0.343 -0.439,-0.857 -0.257,-1.303c0.185,-0.413 0.598,-0.68 1.05,-0.68c0.348,0.005 0.678,0.156 0.91,0.415c3.978,4.24 9.135,6.572 14.532,6.572Zm4.652,-46.515l-0,0.008c-0.564,-0.065 -0.994,-0.548 -0.994,-1.116c-0,-0.613 0.501,-1.119 1.114,-1.124l0.141,0c5.101,0.562 9.808,3.027 13.175,6.9c0.365,0.421 0.365,1.052 0,1.473c-0.218,0.243 -0.529,0.383 -0.855,0.386c-0.331,0.002 -0.647,-0.14 -0.864,-0.39c-2.995,-3.445 -7.18,-5.637 -11.717,-6.137Zm0.103,26.597c-0.378,-0.094 -0.756,-0.189 -1.116,-0.27l-0,-5.104c0.992,0.248 1.544,0.672 1.777,1.356c0.185,0.612 0.312,1.24 0.378,1.875c0.075,0.769 0.233,1.527 0.472,2.261c0.03,0.079 0.063,0.158 0.095,0.237c-0.534,-0.094 -1.074,-0.226 -1.606,-0.355Zm2.006,-4.49c-0.528,-1.526 -1.891,-2.073 -3.102,-2.339l0,-5.227c6.394,-0.012 12.292,3.524 15.293,9.169l-0.989,0.779c-0.104,0.084 -0.211,0.183 -0.323,0.284c-0.147,0.141 -0.305,0.27 -0.473,0.386l-0.05,-0c-0.203,-0.084 -2.615,-1.506 -2.977,-1.743c-0.084,-0.052 -0.181,-0.08 -0.279,-0.08c-0.292,0 -0.533,0.241 -0.533,0.533c0,0.173 0.085,0.336 0.227,0.435l0.161,0.079l-0.888,0.315l-0.253,0.083c-0.508,0.1 -0.931,0.45 -1.125,0.93c-0.05,0.107 -0.113,0.278 -0.175,0.464c-0.097,0.298 -0.214,0.589 -0.349,0.871c-0.456,0.025 -1.935,0 -2.948,0c-0.137,-0.269 -0.259,-0.546 -0.365,-0.83c-0.206,-0.639 -0.345,-1.298 -0.416,-1.966c-0.074,-0.728 -0.22,-1.447 -0.436,-2.146l-0,0.003Zm1.316,26.021c-0.015,0.011 -0.029,0.023 -0.041,0.037c-0.831,0.222 -1.676,0.383 -2.53,0.482c-0.622,0.066 -0.93,0.207 -1.395,-0.104c-0.286,-0.18 -0.464,-0.492 -0.472,-0.83l-0,-11.285l4.899,10.786c-0.17,0.301 -0.32,0.608 -0.461,0.911l0,0.003Zm5.892,-9.251c0.909,1.377 2.375,2.261 3.616,2.883c-1.05,1.41 -2.31,2.651 -3.736,3.68l-1.03,-1.456c-0.101,-0.141 -0.263,-0.224 -0.436,-0.224c-0.128,-0 -0.252,0.046 -0.349,0.129l-2.653,2.303l-0.083,0.083l-5.643,-12.418l-0,-6.438c0.283,0.066 0.567,0.132 0.85,0.207c0.787,0.217 1.59,0.375 2.4,0.472c0.594,1.109 1.417,2.08 2.413,2.847c0.599,0.432 1.977,1.187 3.089,0.945c0.479,-0.097 0.891,-0.4 1.126,-0.828c0.252,-0.519 0.393,-1.084 0.415,-1.66c0.137,-1.709 0.652,-1.846 0.989,-1.622c0.661,0.439 0.278,1.559 -0.233,2.7l-0.104,0.237c-0.637,1.269 -1.102,2.617 -1.383,4.009c-0.286,1.427 -0.017,2.911 0.752,4.147l-0,0.004Zm5.846,-11.081c0.237,0.12 0.478,0.207 0.715,0.316c0.913,4.281 0.136,8.754 -2.168,12.476l-0.024,0c-1.105,-0.567 -2.421,-1.34 -3.181,-2.489c-0.573,-0.935 -0.765,-2.056 -0.536,-3.128c0.257,-1.267 0.681,-2.493 1.262,-3.648l0.104,-0.236c0.444,-0.987 1.353,-3.319 -0.46,-4.381c-3.127,-1.829 -2.334,3.165 -3.252,3.693c-0.062,0.033 -0.075,0.094 -0.182,0.124c-0.462,0.094 -1.396,-0.284 -1.948,-0.701c-0.609,-0.464 -1.139,-1.023 -1.569,-1.657l0.993,0c0.612,0.037 1.225,-0.004 1.827,-0.12c0.387,-0.22 0.598,-0.756 0.855,-1.489c0.054,-0.153 0.095,-0.291 0.141,-0.378c0.104,-0.238 0.121,-0.241 0.473,-0.358l0.283,-0.094l1.366,-0.486l0.183,-0.075c0.054,-0.024 0.154,-0.074 0.128,-0.074c0.1,0.02 1.796,1.012 1.796,1.012l1.246,0.684c0.08,0.048 0.172,0.072 0.266,0.071c0.191,0.001 0.368,-0.102 0.461,-0.269c0.046,-0.081 0.07,-0.172 0.07,-0.264c-0,-0.192 -0.103,-0.369 -0.27,-0.463l-0.249,-0.136c0.062,-0.054 0.083,-0.075 0.178,-0.158c0.096,-0.083 0.19,-0.17 0.284,-0.241l0.801,-0.643c0.308,0.689 0.571,1.397 0.789,2.12c-0.066,-0.028 -0.136,-0.042 -0.208,-0.042c-0.289,-0 -0.528,0.238 -0.528,0.528c0,0.222 0.14,0.422 0.349,0.497l0.005,0.009Zm-6.859,18.254c-1.095,0.694 -2.265,1.262 -3.488,1.693c0.158,-0.277 0.358,-0.528 0.593,-0.743l2.21,-1.921l0.685,0.971Zm-20.288,-22.95l-4.028,-3.522c-0.485,-3.857 -1.741,-7.578 -3.694,-10.94l3.148,2.672c0.221,0.184 0.368,0.442 0.415,0.726c0.176,0.653 0.303,1.319 0.378,1.992c0.071,0.588 0.172,1.172 0.302,1.75c0.277,1.476 0.965,2.844 1.985,3.946c1.305,1.362 3.118,2.124 5.004,2.103c0.329,-0 0.658,-0.021 0.984,-0.062c1.253,-0.158 2.504,-0.39 3.716,-0.643l-0,4.563l-6.532,-1.796c-0.116,-0.038 -0.265,-0.071 -0.415,-0.104c-0.242,-0.04 -0.479,-0.107 -0.706,-0.199c-0.128,-0.083 -0.246,-0.181 -0.349,-0.294l-0.208,-0.192Zm1.412,1.818l6.814,1.868l-0,4.858c-4.615,-0.019 -9.03,-1.912 -12.225,-5.243c0.124,-1.073 0.187,-2.153 0.189,-3.233c0,-0.688 -0.029,-1.369 -0.074,-2.044l3.18,2.775c0.054,0.045 0.108,0.094 0.167,0.153c0.178,0.192 0.385,0.354 0.614,0.482c0.305,0.139 0.628,0.236 0.959,0.29c0.135,0.03 0.259,0.056 0.376,0.089l-0,0.005Zm5.771,-27.128c1.126,-0.062 1.04,1.207 1.04,1.207l-0,20.705c-1.271,0.266 -2.587,0.519 -3.891,0.68c-1.761,0.267 -3.546,-0.335 -4.787,-1.613c-0.846,-0.919 -1.411,-2.061 -1.628,-3.29c-0.115,-0.515 -0.203,-1.036 -0.265,-1.56l0.078,0.049c0.517,0.403 1.137,0.652 1.788,0.72c0.429,-0.001 0.85,-0.118 1.217,-0.341c0.312,-0.174 0.456,-0.211 0.593,-0.174c0.517,0.175 0.999,0.436 1.429,0.772c0.232,0.174 0.261,0.194 -0.124,0.908l-0.1,0.189c-0.179,0.345 -0.044,0.776 0.298,0.958c0.103,0.053 0.217,0.082 0.333,0.083c0.263,0.002 0.506,-0.145 0.627,-0.378l0.094,-0.174c0.337,-0.643 0.968,-1.789 -0.278,-2.718c-0.56,-0.444 -1.194,-0.788 -1.872,-1.016c-0.55,-0.125 -1.128,-0.028 -1.607,0.27c-0.17,0.115 -0.368,0.18 -0.573,0.189c-0.888,-0.087 -2.042,-1.029 -2.167,-1.029c-0.05,-0.216 -0.095,-0.366 -0.167,-0.581c-0.123,-0.549 -0.426,-1.042 -0.859,-1.402l-3.209,-2.731c-0.086,-0.068 -0.187,-0.117 -0.295,-0.14c1.099,-2.263 2.683,-4.256 4.639,-5.838l0.028,0.062c0.087,0.19 0.277,0.312 0.486,0.311c0.076,0.002 0.151,-0.014 0.22,-0.045c0.266,-0.121 0.385,-0.439 0.266,-0.705l-0.129,-0.284c2.592,-1.833 5.646,-2.902 8.815,-3.085l0,0.001Zm10.796,23.486c-0.087,0.097 -0.136,0.223 -0.136,0.354c0,0.151 0.065,0.296 0.178,0.396c0.353,0.32 0.714,0.639 1.079,0.945c0.098,0.08 0.22,0.124 0.345,0.125c0.001,0 0.001,0 0.001,0c0.294,0 0.535,-0.241 0.535,-0.535c0,-0.158 -0.07,-0.308 -0.192,-0.41c-0.357,-0.299 -0.709,-0.614 -1.054,-0.925c-0.098,-0.086 -0.224,-0.133 -0.353,-0.133c-0.154,-0 -0.301,0.066 -0.403,0.182l0,0.001Zm-1.66,-2.462l-0,0.013c-0.101,-0.126 -0.254,-0.2 -0.416,-0.2c-0.292,0 -0.532,0.24 -0.532,0.532c0,0.089 0.022,0.177 0.065,0.255c0.103,0.147 0.218,0.286 0.345,0.415l0.415,0.415l0.257,0.274c0.1,0.107 0.24,0.167 0.386,0.165c0.137,-0 0.269,-0.052 0.37,-0.145c0.211,-0.202 0.22,-0.542 0.021,-0.756l-0.258,-0.269c-0.145,-0.129 -0.278,-0.274 -0.415,-0.415c-0.086,-0.089 -0.166,-0.183 -0.238,-0.284Zm-2.458,-3.224l0.008,0.009c-0.127,0.099 -0.2,0.252 -0.2,0.412c-0,0.118 0.039,0.233 0.113,0.326c0.263,0.344 0.485,0.717 0.661,1.112c0.09,0.18 0.272,0.296 0.473,0.299c0.001,0 0.002,0 0.003,0c0.292,0 0.532,-0.24 0.532,-0.532c0,-0.08 -0.018,-0.159 -0.053,-0.232c-0.213,-0.47 -0.481,-0.915 -0.798,-1.323c-0.1,-0.124 -0.251,-0.196 -0.41,-0.196c-0.123,-0 -0.242,0.043 -0.336,0.121l0.007,0.004Zm-14.351,-10.396c0.064,0.005 0.128,-0.002 0.189,-0.02c0.198,-0.082 0.327,-0.276 0.327,-0.491c0,-0.072 -0.015,-0.144 -0.044,-0.21c-0.087,-0.208 -0.178,-0.42 -0.274,-0.623l-0.303,-0.726c-0.089,-0.184 -0.275,-0.301 -0.479,-0.301c-0.292,-0 -0.533,0.24 -0.533,0.532c0,0.073 0.016,0.146 0.045,0.213l0.316,0.701c0.094,0.189 0.178,0.398 0.265,0.602c0.083,0.196 0.277,0.324 0.491,0.323Zm1.955,3.099c0.144,-0.099 0.23,-0.263 0.23,-0.437c-0,-0.109 -0.034,-0.216 -0.096,-0.305c-0.2,-0.283 -0.408,-0.598 -0.582,-0.909c-0.05,-0.082 -0.1,-0.17 -0.145,-0.261c-0.092,-0.175 -0.275,-0.285 -0.473,-0.285c-0.293,-0 -0.534,0.241 -0.534,0.534c0,0.086 0.021,0.172 0.062,0.248c0.05,0.1 0.104,0.196 0.158,0.291c0.199,0.348 0.423,0.681 0.635,0.987c0.099,0.146 0.264,0.233 0.44,0.233c0.109,-0.002 0.215,-0.035 0.305,-0.096Zm2.853,2.249c0.017,-0.052 0.025,-0.107 0.025,-0.162c0,-0.237 -0.158,-0.446 -0.386,-0.51l-0.527,-0.167c-0.203,-0.055 -0.397,-0.142 -0.573,-0.257c-0.042,-0.034 -0.08,-0.073 -0.113,-0.116c-0.1,-0.115 -0.247,-0.182 -0.4,-0.182c-0.291,0 -0.531,0.24 -0.531,0.531c-0,0.113 0.035,0.222 0.101,0.313c0.087,0.113 0.187,0.214 0.299,0.302c0.281,0.188 0.591,0.328 0.918,0.415l0.174,0.054l0.128,0.042l0.221,0.07c0.118,0.042 0.247,0.042 0.365,0c0.144,-0.062 0.253,-0.184 0.299,-0.333Zm3.131,1.278c0.108,-0.272 -0.027,-0.585 -0.299,-0.693l-1.341,-0.531c-0.063,-0.025 -0.129,-0.038 -0.196,-0.038c-0.293,0 -0.534,0.241 -0.534,0.533c0,0.219 0.135,0.416 0.338,0.496l1.337,0.531c0.064,0.025 0.131,0.037 0.199,0.037c0.218,0 0.415,-0.133 0.496,-0.335Z" style="fill:#d40058;fill-rule:nonzero;"/><path d="M134.303,26.167c-1.067,1.166 -2.578,1.83 -4.159,1.828c-3.723,-0 -6.427,-2.93 -6.427,-6.953c-0,-4.299 3.336,-6.953 6.427,-6.953c1.577,-0.024 3.091,0.627 4.159,1.787l-0,-7.027c0.001,-0.121 0.101,-0.221 0.222,-0.221l2.187,0c0.123,0 0.224,0.099 0.226,0.221l0,18.545c-0.002,0.122 -0.103,0.221 -0.226,0.221l-2.187,-0c-0.121,-0 -0.221,-0.1 -0.222,-0.221l-0,-1.227Zm-7.946,-5.125c-0,2.249 1.03,4.671 3.969,4.683c2.488,0 3.97,-2.384 3.97,-4.683c0,-2.937 -1.486,-4.688 -3.97,-4.688c-2.738,0 -3.969,2.431 -3.969,4.688Zm13.274,6.569c-0.121,-0 -0.221,-0.1 -0.222,-0.221l0,-12.725c0.001,-0.121 0.1,-0.22 0.221,-0.22c0.001,0 0.001,0 0.001,0l2.007,0c0.114,-0.001 0.212,0.087 0.222,0.201l0.127,1.259c1.058,-1.199 2.596,-1.868 4.195,-1.825c3.308,0 4.983,2.156 4.983,6.401l-0,6.909c-0.002,0.122 -0.103,0.221 -0.225,0.221l-2.188,0c-0.122,0 -0.222,-0.1 -0.223,-0.221l0,-6.348c0,-1.104 0,-2.327 -0.352,-3.227c-0.386,-0.998 -1.121,-1.461 -2.352,-1.461c-1.523,0 -3.781,1.281 -3.781,3.052l0,7.984c-0.002,0.122 -0.103,0.222 -0.226,0.221l-2.187,0Zm34.836,8.254c0.111,0.007 0.199,0.097 0.205,0.208c0.007,0.034 0.007,0.069 0,0.103l-5.714,13.713c-1.12,2.597 -2.909,4.23 -5.04,4.597l-0.004,0c-0.067,-0.001 -0.13,-0.032 -0.173,-0.084l-1.19,-1.453c-0.049,-0.059 -0.064,-0.139 -0.04,-0.211c0.025,-0.073 0.084,-0.129 0.159,-0.148c2.064,-0.511 3.263,-1.644 3.997,-3.781l-5.307,-12.638c-0.035,-0.065 -0.035,-0.143 -0,-0.208c0.044,-0.06 0.114,-0.095 0.189,-0.095l2.286,0c0.093,-0.002 0.178,0.056 0.209,0.143l3.95,10.14l4.065,-10.147c0.033,-0.086 0.117,-0.142 0.209,-0.139l2.199,-0Zm-69.126,-27.237c5.048,0 9.157,4.341 9.157,9.674c-0,5.333 -4.113,9.693 -9.157,9.693c-5.045,-0 -9.15,-4.36 -9.15,-9.693c-0,-5.334 4.105,-9.674 9.15,-9.674Zm6.522,9.674c-0,-4.087 -2.923,-7.412 -6.522,-7.412c-3.6,0 -6.527,3.325 -6.527,7.412c-0,4.086 2.93,7.411 6.527,7.411c3.596,0 6.522,-3.321 6.522,-7.411Zm13.131,17.563c0.059,-0.001 0.117,0.021 0.159,0.063c0.043,0.041 0.066,0.098 0.066,0.157l0,12.724c0.001,0.06 -0.023,0.117 -0.066,0.158c-0.042,0.042 -0.1,0.065 -0.159,0.064l-2.003,-0c-0.115,0.002 -0.213,-0.087 -0.222,-0.201l-0.132,-1.26c-1.057,1.201 -2.596,1.87 -4.195,1.825c-3.308,-0 -4.983,-2.152 -4.983,-6.401l0,-6.909c0.003,-0.122 0.104,-0.22 0.226,-0.22l2.192,-0c0,-0 0.001,-0 0.001,-0c0.121,-0 0.221,0.099 0.221,0.22l0,6.36c0,1.153 0,2.327 0.349,3.231c0.389,0.994 1.125,1.457 2.356,1.457c1.523,-0 3.781,-1.28 3.781,-3.048l0,-8c0.001,-0.121 0.1,-0.22 0.221,-0.22c0.001,-0 0.001,-0 0.001,-0l2.187,-0Zm24.197,0.094c0.043,0.063 0.05,0.143 0.021,0.213l-5.435,12.72c-0.035,0.082 -0.116,0.135 -0.205,0.135l-2.101,-0c-0.089,-0.001 -0.17,-0.054 -0.206,-0.135l-5.361,-12.721c-0.011,-0.027 -0.017,-0.056 -0.017,-0.085c0,-0.121 0.1,-0.221 0.221,-0.221c0.001,-0 0.001,-0 0.001,-0l2.282,-0c0.093,-0.002 0.177,0.055 0.21,0.142l3.911,10.02l4.051,-10.02c0.033,-0.084 0.115,-0.139 0.205,-0.139l2.227,0c0.075,-0.001 0.146,0.034 0.189,0.095l0.007,-0.004Zm6.273,-0.462c3.907,0 6.057,2.568 6.057,7.247c0.002,0.059 -0.021,0.117 -0.063,0.159c-0.041,0.042 -0.098,0.066 -0.158,0.066l-9.613,-0c0.16,2.058 1.224,4.172 3.781,4.172c1.876,0 3.55,-0.567 4.581,-1.559c0.056,-0.052 0.135,-0.074 0.21,-0.056c0.072,0.016 0.132,0.068 0.156,0.139l0.639,1.717c0.033,0.088 0.009,0.187 -0.061,0.25c-1.716,1.464 -3.953,1.771 -5.525,1.771c-3.842,0 -6.427,-2.794 -6.427,-6.953c-0.011,-4.029 2.696,-6.952 6.418,-6.952l0.005,-0.001Zm-3.752,5.582l7.137,0c-0.385,-2.249 -1.469,-3.3 -3.385,-3.3c-1.917,-0 -3.371,1.288 -3.757,3.304l0.005,-0.004Zm-35.248,-13.468c-0.121,0 -0.221,-0.1 -0.221,-0.221l-0,-12.704c-0,-0.121 0.1,-0.221 0.221,-0.221l2.008,0c0.113,-0 0.21,0.087 0.221,0.2l0.115,1.155c0.725,-1.08 1.942,-1.729 3.242,-1.731c0.472,0.005 0.94,0.069 1.396,0.189c0.101,0.022 0.173,0.113 0.172,0.216l0,1.985c-0.001,0.121 -0.101,0.219 -0.221,0.219c-0.039,-0 -0.077,-0.01 -0.111,-0.03c-0.396,-0.264 -0.872,-0.382 -1.346,-0.335c-2.845,-0 -3.062,3.17 -3.062,4.139l0,6.908c-0.001,0.122 -0.101,0.222 -0.223,0.222c-0.001,-0 -0.002,-0 -0.003,-0l-2.188,0.009Zm83.727,-13.522c3.908,-0 6.059,2.564 6.059,7.231c-0,-0 -0,-0 -0,-0c-0,0.121 -0.1,0.221 -0.221,0.221c-0,-0 -0.001,-0 -0.001,-0l-9.613,-0c0.16,2.061 1.229,4.172 3.781,4.172c1.901,0 3.543,-0.581 4.589,-1.562c0.053,-0.052 0.129,-0.074 0.201,-0.058c0.075,0.016 0.137,0.068 0.165,0.139l0.64,1.718c0.047,0.095 0.017,0.211 -0.07,0.27c-1.716,1.469 -3.948,1.775 -5.525,1.775c-3.842,-0 -6.428,-2.802 -6.428,-6.953c-0.001,-4.032 2.7,-6.953 6.423,-6.953Zm-3.751,5.562l7.138,0c-0.386,-2.249 -1.47,-3.3 -3.387,-3.3c-1.917,-0 -3.368,1.288 -3.751,3.3Zm-90.714,18.254c3.978,1.048 5.993,3.064 5.989,5.996c-0.016,3.235 -2.507,5.494 -6.059,5.494c-2.646,-0.029 -5.044,-0.913 -6.399,-2.364c-0.068,-0.081 -0.068,-0.201 0,-0.283l1.146,-1.635c0.037,-0.053 0.095,-0.088 0.16,-0.095c0.063,-0.011 0.128,0.011 0.172,0.058c1.34,1.254 3.091,1.982 4.926,2.048c0.038,0.001 0.076,0.002 0.113,0.002c1.718,0 3.131,-1.413 3.131,-3.13c-0,-0.036 -0.001,-0.071 -0.002,-0.106c0.021,-2.206 -1.728,-2.856 -3.85,-3.432c-3.402,-0.929 -5.27,-2.876 -5.27,-5.469c-0,-3.382 3.045,-4.949 5.873,-4.949c1.625,0.006 3.216,0.465 4.594,1.324c0.049,0.034 0.083,0.087 0.095,0.146c0.012,0.059 -0.001,0.12 -0.037,0.168l-1.121,1.587c-0.067,0.092 -0.191,0.121 -0.291,0.069c-0.988,-0.587 -2.098,-0.937 -3.243,-1.022c-1.597,-0 -3.239,0.83 -3.239,2.687c-0.037,1.79 1.873,2.497 3.312,2.906Zm29.172,-2.218c0.101,0.026 0.172,0.117 0.173,0.221l-0,1.996c-0.001,0.124 -0.103,0.225 -0.226,0.225c-0.039,0 -0.077,-0.01 -0.111,-0.029c-0.398,-0.263 -0.875,-0.381 -1.351,-0.335c-2.835,-0 -3.057,3.17 -3.057,4.14l-0,6.907c-0.001,0.121 -0.101,0.22 -0.222,0.221l-2.187,0c-0.121,0 -0.221,-0.099 -0.222,-0.221l-0,-12.727c0.001,-0.121 0.1,-0.22 0.221,-0.22c0,-0 0.001,-0 0.001,-0l2.007,-0c0.114,-0.001 0.211,0.086 0.222,0.2l0.114,1.153c0.726,-1.078 1.943,-1.727 3.243,-1.729c0.471,0.012 0.94,0.079 1.395,0.198Zm57.228,-11.258c0.071,0.026 0.122,0.088 0.135,0.163l0.567,1.718c0.027,0.087 -0,0.183 -0.07,0.241c-1.162,0.957 -2.718,1.444 -4.622,1.444c-3.892,-0 -6.617,-2.945 -6.617,-6.978c0,-4.033 2.792,-6.953 6.638,-6.953c0.956,0 3.325,0.185 4.556,1.886c0.055,0.077 0.055,0.181 -0,0.258l-0.924,1.333c-0.038,0.058 -0.102,0.093 -0.172,0.094c-0.071,-0.005 -0.138,-0.036 -0.189,-0.086c-0.915,-1.134 -1.985,-1.229 -3.284,-1.229c-2.93,0 -3.97,2.524 -3.97,4.688c0,2.973 1.446,4.682 3.97,4.682c1.363,0.059 2.702,-0.378 3.769,-1.228c0.059,-0.05 0.141,-0.062 0.213,-0.033Zm-33.158,3.566c-3.723,-0 -6.427,-2.941 -6.427,-6.953c-0,-4.299 3.334,-6.953 6.427,-6.953c1.602,-0.023 3.137,0.65 4.206,1.843l0.131,-1.288c0.01,-0.114 0.107,-0.202 0.221,-0.201l2.011,0c0,0 0,0 0.001,0c0.12,0 0.22,0.1 0.22,0.221l-0,12.75c-0,0.122 -0.1,0.222 -0.221,0.222l-2.193,-0c-0.122,-0 -0.222,-0.1 -0.222,-0.222l-0,-1.228c-1.069,1.158 -2.577,1.816 -4.154,1.809Zm-3.789,-6.953c0,2.249 1.04,4.671 3.97,4.683c2.487,0 3.97,-2.384 3.97,-4.683c-0,-2.937 -1.486,-4.688 -3.97,-4.688c-2.738,0 -3.97,2.431 -3.97,4.688Zm19.822,-6.953c3.308,-0 4.983,2.147 4.966,6.392l0,6.909c0,0.121 -0.1,0.221 -0.221,0.221l-2.192,0c-0.121,0 -0.221,-0.1 -0.222,-0.221l0,-6.348c0,-1.104 0,-2.327 -0.349,-3.227c-0.389,-0.998 -1.125,-1.461 -2.355,-1.461c-1.519,0 -3.781,1.281 -3.781,3.052l-0,7.984c-0.001,0.121 -0.1,0.22 -0.221,0.221l-2.192,0c-0.122,0 -0.222,-0.1 -0.222,-0.221l-0,-12.716c0,-0.122 0.1,-0.221 0.222,-0.221l2.018,-0c0.114,-0 0.21,0.087 0.222,0.2l0.127,1.26c1.06,-1.2 2.6,-1.869 4.2,-1.824Z" style="fill:#453c90;fill-rule:nonzero;"/></g></svg>